<svg fill="none" xmlns="http://www.w3.org/2000/svg" viewBox="0 0 128 129">
  <path d="M64 128.1c-17.096 0-33.166-6.658-45.255-18.745C6.655 97.268 0 81.195 0 64.1c0-17.094 6.658-33.166 18.745-45.256C30.83 6.757 46.904.1 64 .1c17.096 0 33.166 6.657 45.255 18.744C121.342 30.931 128 47.004 128 64.1s-6.658 33.166-18.745 45.255C97.169 121.445 81.096 128.1 64 128.1ZM64 6.531c-15.376 0-29.834 5.988-40.706 16.862C12.422 34.268 6.432 48.723 6.432 64.1c0 15.376 5.987 29.834 16.862 40.706 10.874 10.872 25.33 16.862 40.706 16.862 15.376 0 29.834-5.988 40.706-16.862 10.872-10.875 16.862-25.33 16.862-40.706 0-15.376-5.987-29.835-16.862-40.707C93.832 12.521 79.376 6.531 64 6.531Z" fill="#000"/>
  <path d="M90.248 81.057h6.641l8.328-25.492v25.492h6.221V47.144h-9.824l-8 26.429-8.232-26.429h-9.729v33.913h6.222V55.565l8.373 25.492ZM52.92 52.382h5.051c3.648 0 7.905.468 7.905 6.036 0 4.49-3.275 5.52-7.436 5.52h-5.52V52.381Zm4.91-5.238h-11.6v33.913h6.69V69.13h5.1c7.81 0 14.734-2.106 14.734-10.757-.002-10.247-7.955-11.229-14.923-11.229ZM34.818 71.515c0 3.18-2.853 5.286-6.363 5.286-4.208 0-6.407-2.994-6.875-6.408h-6.08c.42 6.222 5.006 11.273 12.77 11.273 7.157 0 13.097-3.461 13.097-10.337 0-3.414-1.965-6.783-5.472-8.232 2.574-1.404 4.584-4.163 4.584-7.436 0-6.408-5.847-9.123-11.508-9.123-7.766 0-12.443 4.116-13.19 10.854h6.129c.327-3.51 2.807-5.988 6.69-5.988 2.807 0 5.378 1.59 5.378 4.538 0 3.18-3.04 4.96-7.905 4.96H24.95v5.05h1.356c4.815-.004 8.511 1.585 8.511 5.563Z" fill="#000"/>
</svg>
