<svg width="420" height="420" viewBox="0 0 420 420" fill="none" xmlns="http://www.w3.org/2000/svg">
<path d="M282.265 339.581C297.413 339.581 309.739 327.256 309.739 312.108V279.765C309.739 264.617 297.413 252.291 282.265 252.291H266.759L271.387 215.074C271.463 214.477 271.275 213.875 270.878 213.424C270.48 212.974 269.906 212.716 269.304 212.716H147.078C146.476 212.716 145.902 212.974 145.505 213.424C145.107 213.875 144.92 214.477 144.995 215.074L164.763 374.086H140.076C138.916 374.086 137.976 375.026 137.976 376.186C137.976 377.345 138.916 378.286 140.076 378.286H279.93C281.089 378.286 282.03 377.345 282.03 376.186C282.03 375.026 281.089 374.086 279.93 374.086H251.619L255.909 339.584H282.268L282.265 339.581ZM282.265 256.488C295.098 256.488 305.539 266.93 305.539 279.762V312.105C305.539 324.937 295.098 335.378 282.265 335.378H256.427L266.235 256.486H282.265V256.488ZM152.096 238.176H264.278L260.719 266.809H155.655L152.096 238.176ZM266.924 216.91L264.802 233.976H151.575L149.453 216.91H266.924ZM168.994 374.08L156.178 271.006H260.198L247.383 374.08H168.991H168.994Z" fill="#20311A"/>
<path d="M278.135 36.5317C276.976 36.5317 276.035 37.4725 276.035 38.6317C276.035 53.0937 264.269 64.8621 249.804 64.8621H159.793C144.967 64.8621 132.904 76.9245 132.904 91.7505C132.904 106.577 144.967 118.639 159.793 118.639H213.536C214.695 118.639 215.636 117.698 215.636 116.539C215.636 115.38 214.695 114.439 213.536 114.439H159.793C147.282 114.439 137.104 104.261 137.104 91.7505C137.104 79.2401 147.282 69.0621 159.793 69.0621H249.804C266.582 69.0621 280.235 55.4121 280.235 38.6317C280.235 37.4725 279.294 36.5317 278.135 36.5317Z" fill="#20311A"/>
<path d="M245.294 157.817H189.893C180.191 157.817 172.301 165.71 172.301 175.409C172.301 185.108 180.194 193.001 189.893 193.001H205.932C211.148 193.001 215.393 197.246 215.393 202.463C215.393 203.622 216.334 204.563 217.493 204.563C218.652 204.563 219.593 203.622 219.593 202.463C219.593 194.931 213.464 188.801 205.932 188.801H189.893C182.51 188.801 176.501 182.793 176.501 175.409C176.501 168.025 182.51 162.017 189.893 162.017H245.294C258.412 162.017 269.083 151.346 269.083 138.228C269.083 125.11 258.412 114.439 245.294 114.439H233.013C231.854 114.439 230.913 115.38 230.913 116.539C230.913 117.698 231.854 118.639 233.013 118.639H245.294C256.096 118.639 264.883 127.428 264.883 138.228C264.883 149.027 256.094 157.817 245.294 157.817Z" fill="#20311A"/>
</svg>
