<svg width="420" height="420" viewBox="0 0 420 420" fill="none" xmlns="http://www.w3.org/2000/svg">
<path d="M226.26 297.035H208.189C207.03 297.035 206.089 297.976 206.089 299.135C206.089 300.294 207.03 301.235 208.189 301.235H226.26C227.419 301.235 228.36 300.294 228.36 299.135C228.36 297.976 227.419 297.035 226.26 297.035Z" fill="#20311A"/>
<path d="M124.759 301.235H142.83C143.99 301.235 144.93 300.294 144.93 299.135C144.93 297.976 143.99 297.035 142.83 297.035H124.759C123.6 297.035 122.659 297.976 122.659 299.135C122.659 300.294 123.6 301.235 124.759 301.235Z" fill="#20311A"/>
<path d="M308.538 320.172C296.109 320.172 285.995 330.285 285.995 342.714C285.995 355.144 296.109 365.257 308.538 365.257C320.967 365.257 331.081 355.144 331.081 342.714C331.081 330.285 320.967 320.172 308.538 320.172ZM308.538 361.057C298.424 361.057 290.195 352.828 290.195 342.714C290.195 332.601 298.424 324.372 308.538 324.372C318.652 324.372 326.881 332.601 326.881 342.714C326.881 352.828 318.652 361.057 308.538 361.057Z" fill="#20311A"/>
<path d="M132.214 342.714C132.214 330.285 122.1 320.172 109.671 320.172C97.2415 320.172 87.1279 330.285 87.1279 342.714C87.1279 355.144 97.2415 365.257 109.671 365.257C122.1 365.257 132.214 355.144 132.214 342.714ZM91.3279 342.714C91.3279 332.601 99.5571 324.372 109.671 324.372C119.784 324.372 128.014 332.601 128.014 342.714C128.014 352.828 119.784 361.057 109.671 361.057C99.5571 361.057 91.3279 352.828 91.3279 342.714Z" fill="#20311A"/>
<path d="M392 378.283C393.16 378.283 394.1 377.342 394.1 376.183C394.1 375.023 393.16 374.083 392 374.083H323.487C332.335 369.849 339.125 361.978 341.911 352.416H385.513C386.672 352.416 387.613 351.475 387.613 350.316V315.048C387.613 305.553 380.82 297.508 371.457 295.918L356.158 293.319L348.46 291.984C348.346 291.964 348.231 291.956 348.119 291.956L304.789 284.6L267.414 245.501C261.17 238.969 252.409 235.225 243.371 235.225H136.38C125.466 235.225 114.756 238.207 105.415 243.852L33.7488 287.143C33.7488 287.143 33.7292 287.157 33.7208 287.162C33.6648 287.199 33.6088 287.238 33.5556 287.277C33.5416 287.288 33.5276 287.297 33.5164 287.308C33.4548 287.358 33.3932 287.414 33.3372 287.47C33.3232 287.484 33.312 287.498 33.3008 287.512C33.256 287.56 33.2168 287.607 33.1776 287.658C33.1636 287.677 33.1496 287.694 33.1356 287.714C33.0964 287.767 33.06 287.826 33.0264 287.882C33.0208 287.893 33.0124 287.904 33.004 287.915C32.962 287.988 32.9256 288.064 32.8948 288.142C32.892 288.151 32.8892 288.159 32.8864 288.168C32.8584 288.235 32.836 288.305 32.8164 288.375C32.8108 288.394 32.8052 288.417 32.7996 288.436C32.7856 288.498 32.7716 288.56 32.7632 288.624C32.7604 288.646 32.7548 288.669 32.752 288.688C32.7408 288.769 32.7352 288.854 32.7352 288.94V333.012C32.7352 343.711 41.4376 352.413 52.1364 352.413H76.3032C79.0864 361.973 85.8764 369.843 94.7272 374.08H28.0004C26.8412 374.08 25.9004 375.021 25.9004 376.18C25.9004 377.339 26.8412 378.28 28.0004 378.28H392V378.283ZM308.538 373.265C291.693 373.265 277.987 359.559 277.987 342.714C277.987 325.869 291.693 312.163 308.538 312.163C325.383 312.163 339.089 325.869 339.089 342.714C339.089 359.559 325.383 373.265 308.538 373.265ZM143.985 348.216C144.27 346.424 144.422 344.585 144.422 342.714C144.422 338.22 143.565 333.922 142.005 329.977H192.668V348.219H143.985V348.216ZM196.868 329.974H276.206C274.647 333.919 273.79 338.217 273.79 342.711C273.79 344.585 273.941 346.421 274.227 348.213H196.868V329.971V329.974ZM342.855 348.216C343.14 346.424 343.292 344.585 343.292 342.714C343.292 338.22 342.435 333.922 340.875 329.977H383.413V348.219H342.855V348.216ZM350.202 296.573L355.466 297.466L370.748 300.121C370.748 300.121 370.754 300.121 370.757 300.121C378.076 301.364 383.39 307.641 383.416 315.059L360.626 311.427C354.587 310.464 350.205 305.326 350.205 299.213V296.573H350.202ZM107.585 247.45C116.273 242.203 126.23 239.428 136.38 239.428H243.371C251.267 239.428 258.922 242.701 264.376 248.407L302.232 288.008C302.546 288.335 302.955 288.551 303.4 288.627L346.002 295.859V299.211C346.002 307.403 351.874 314.283 359.963 315.574L383.413 319.312V325.774H338.876C332.923 315.154 321.558 307.961 308.541 307.961C295.524 307.961 284.161 315.154 278.206 325.774H196.868V289.744H276.758C278.572 289.744 280.154 288.711 280.885 287.05C281.616 285.39 281.305 283.528 280.079 282.189L255.17 255.052C251.704 251.275 246.776 249.11 241.649 249.11H149.019C144.178 249.11 139.401 249.903 134.82 251.465L115.402 258.09C112.698 259.011 110.88 261.551 110.88 264.409V271.211C110.88 273.767 112.303 276.06 114.596 277.194L131.354 285.491C136.979 288.277 143.271 289.747 149.548 289.747H192.674V325.777H140.012C134.059 315.157 122.694 307.963 109.676 307.963C96.6592 307.963 85.2968 315.157 79.3412 325.777H36.9352V316.201H48.1352C51.6968 316.201 54.9476 314.395 56.8264 311.368L62.3508 302.467C62.3648 302.445 62.3788 302.419 62.3928 302.394C62.4012 302.377 62.4096 302.363 62.418 302.349C64.3332 299.171 64.406 295.352 62.5972 292.101C60.766 288.811 57.4256 286.846 53.6596 286.846H42.3728L107.588 247.453L107.585 247.45ZM116.455 273.431C115.604 273.011 115.078 272.16 115.078 271.211V264.409C115.078 263.348 115.752 262.407 116.755 262.066L128.649 258.009V279.468L116.455 273.431ZM132.849 256.578L136.173 255.444C140.317 254.03 144.637 253.313 149.016 253.313H192.668V285.547H149.543C143.909 285.547 138.262 284.225 133.21 281.725L132.849 281.545V256.575V256.578ZM241.646 253.313C245.6 253.313 249.399 254.982 252.073 257.894L276.982 285.031C277.024 285.076 277.116 285.18 277.038 285.362C276.957 285.547 276.817 285.547 276.758 285.547H196.868V253.313H241.646ZM53.6596 291.043C55.88 291.043 57.8484 292.202 58.9264 294.14C59.8224 295.75 59.9344 297.595 59.2764 299.255H36.9324V291.04H53.6596V291.043ZM36.9324 303.458H56.79L53.2564 309.153C52.1504 310.937 50.2352 312.001 48.1352 312.001H36.9352V303.458H36.9324ZM52.1336 348.219C43.7504 348.219 36.9324 341.398 36.9324 333.018V329.98H77.3392C75.7796 333.925 74.9228 338.223 74.9228 342.717C74.9228 344.59 75.074 346.427 75.3596 348.219H52.1364H52.1336ZM79.12 342.717C79.12 325.872 92.826 312.166 109.671 312.166C126.516 312.166 140.222 325.872 140.222 342.717C140.222 359.562 126.516 373.268 109.671 373.268C92.826 373.268 79.12 359.562 79.12 342.717ZM143.041 352.419H275.168C277.951 361.978 284.741 369.849 293.592 374.085H124.617C133.465 369.852 140.255 361.981 143.041 352.419Z" fill="#20311A"/>
<path d="M327.483 273.204C326.898 275.321 327.894 277.413 329.908 278.289C330.49 278.544 331.092 278.664 331.677 278.664C333.114 278.664 334.466 277.928 335.284 276.598L378.216 206.774C379.031 205.45 379.064 203.784 378.306 202.426C377.547 201.068 376.11 200.225 374.554 200.225H352.557C352.534 200.225 352.506 200.225 352.478 200.183C352.45 200.141 352.459 200.113 352.467 200.094L370.715 149.817C371.194 148.501 370.998 147.031 370.194 145.886C369.39 144.74 368.074 144.054 366.674 144.054H330.764C328.774 144.054 327.057 145.404 326.59 147.339L308.468 222.104C308.154 223.392 308.446 224.731 309.266 225.772C310.086 226.814 311.316 227.413 312.643 227.413H340.03C340.046 227.413 340.077 227.413 340.108 227.452C340.136 227.492 340.13 227.52 340.125 227.536L327.483 273.199V273.204ZM343.451 224.913C342.631 223.835 341.385 223.219 340.032 223.219H312.646C312.629 223.219 312.598 223.219 312.57 223.182C312.542 223.146 312.548 223.118 312.553 223.101L330.675 148.338C330.686 148.294 330.725 148.263 330.77 148.263H366.68C366.702 148.263 366.73 148.263 366.758 148.305C366.786 148.347 366.778 148.375 366.77 148.394L348.522 198.671C348.043 199.987 348.239 201.457 349.043 202.602C349.846 203.748 351.162 204.434 352.562 204.434H374.559C374.59 204.434 374.615 204.434 374.643 204.484C374.671 204.534 374.657 204.557 374.643 204.582L331.711 274.406C331.688 274.439 331.674 274.459 331.672 274.464C331.635 274.47 331.537 274.428 331.52 274.414C331.52 274.414 331.52 274.389 331.534 274.33L344.176 228.668C344.538 227.363 344.274 225.996 343.454 224.918L343.451 224.913Z" fill="#20311A"/>
</svg>
