<svg width="420" height="420" viewBox="0 0 420 420" fill="none" xmlns="http://www.w3.org/2000/svg">
<path d="M25.9004 376.182C25.9004 377.342 26.8412 378.282 28.0004 378.282H392C393.16 378.282 394.1 377.342 394.1 376.182C394.1 375.023 393.16 374.082 392 374.082H331.442C358.378 364.282 377.67 338.424 377.67 308.142C377.67 269.466 346.206 238.002 307.53 238.002C295.246 238.002 283.237 241.214 272.642 247.31L267.062 234.824L272.788 226.987C274.776 230.616 278.628 233.08 283.05 233.08H295.487C296.646 233.08 297.587 232.139 297.587 230.98V211.797C297.587 210.638 296.646 209.697 295.487 209.697H283.05C276.604 209.697 271.36 214.942 271.36 221.387C271.36 221.527 271.365 221.667 271.371 221.807L265.09 230.406L254.173 205.976C252.905 203.14 253.148 200.02 254.837 197.414C256.525 194.807 259.278 193.314 262.383 193.314H276.386C280.818 193.314 284.424 189.708 284.424 185.276C284.424 180.843 280.818 177.237 276.386 177.237H235.27C234.111 177.237 233.17 178.178 233.17 179.337V191.214C233.17 192.374 234.111 193.314 235.27 193.314H242.483C239.921 198.959 239.868 205.447 242.447 211.218L245.479 217.999H167.667L160.757 202.535L169.213 201.404C175.356 200.583 180.141 195.501 180.592 189.322L180.878 185.427C180.92 184.844 180.718 184.27 180.32 183.845C179.923 183.416 179.366 183.176 178.783 183.176H123.408C122.741 183.176 122.117 183.492 121.719 184.027C121.324 184.562 121.204 185.253 121.397 185.889L123.304 192.158C125.67 199.931 132.748 205.06 140.67 205.06C141.479 205.06 142.299 205.007 143.125 204.895L147.485 204.313L156 223.364C146.622 219.671 136.752 217.795 126.622 217.795H62.9528C59.5732 217.795 56.8236 220.544 56.8236 223.924C56.8236 227.304 59.5732 230.056 62.9528 230.056H72.3328L80.6572 246.442C58.7528 258.322 43.8456 281.523 43.8456 308.142C43.8456 338.424 63.1348 364.285 90.0736 374.082H28.0004C26.8412 374.082 25.9004 375.023 25.9004 376.182ZM283.047 213.9H293.384V228.883H283.047C278.917 228.883 275.557 225.523 275.557 221.393C275.557 217.263 278.917 213.903 283.047 213.903V213.9ZM137.9 374.082C143.475 372.052 148.804 369.308 153.768 365.876C164.839 358.223 173.404 347.701 178.61 335.381H204.314C216.51 335.381 226.434 325.458 226.434 313.261C226.434 308.277 224.776 303.676 221.984 299.975L259.373 249.107L261.949 254.872C246.322 268.254 237.384 287.593 237.384 308.142C237.384 338.424 256.674 364.285 283.612 374.082H137.9ZM138.214 255.847C130.604 252.299 122.461 250.499 113.977 250.499C105.493 250.499 97.3508 252.361 90.0624 255.698L86.3048 248.298C94.7244 244.389 104.102 242.202 113.98 242.202C123.858 242.202 133.451 244.361 142.336 248.617L138.217 255.847H138.214ZM113.977 254.699C121.725 254.699 129.164 256.32 136.128 259.512L118.116 291.144H118.06C114.851 291.144 111.802 291.835 109.046 293.07L91.9664 259.445C98.6836 256.396 106.137 254.699 113.98 254.699H113.977ZM105.39 295.148C99.6804 299.152 95.9396 305.776 95.9396 313.264C95.9396 325.46 105.863 335.384 118.06 335.384H159.945C155.588 342.708 149.534 348.919 142.274 353.469C133.796 358.783 124.012 361.589 113.98 361.589C84.51 361.589 60.5364 337.612 60.5364 308.145C60.5364 288.013 71.728 270.446 88.2172 261.335L105.392 295.148H105.39ZM118.06 331.184C108.178 331.184 100.14 323.145 100.14 313.264C100.14 303.382 108.178 295.344 118.06 295.344H119.328H119.334C119.334 295.344 119.336 295.344 119.339 295.344H129.234C129.234 295.344 129.24 295.344 129.243 295.344H167.485C167.485 295.344 167.488 295.344 167.491 295.344C167.491 295.344 167.494 295.344 167.496 295.344H180.368C180.368 295.344 180.368 295.344 180.371 295.344C180.371 295.344 180.374 295.344 180.376 295.344H189.516C189.516 295.344 189.521 295.344 189.524 295.344C189.527 295.344 189.532 295.344 189.535 295.344H199.027C199.027 295.344 199.033 295.344 199.036 295.344H204.319C214.2 295.344 222.239 303.382 222.239 313.264C222.239 323.145 214.2 331.184 204.319 331.184H177.168H177.165H118.062H118.06ZM182.037 291.146C178.072 275.265 168.698 261.335 155.423 251.591L162.812 238.616L186.287 291.144H182.037V291.146ZM153.328 255.27C165.321 264.208 173.872 276.799 177.697 291.146H169.064C165.57 279.86 158.587 269.81 149.19 262.536L153.328 255.267V255.27ZM147.09 266.224C155.227 272.666 161.356 281.374 164.649 291.146H132.897L147.09 266.224ZM204.319 291.146H200.352L173.404 230.848H251.216L253.353 235.625L211.627 292.392C209.337 291.589 206.878 291.146 204.319 291.146ZM307.53 242.205C343.891 242.205 373.47 271.784 373.47 308.145C373.47 344.506 343.888 374.085 307.53 374.085C271.172 374.085 241.59 344.503 241.59 308.145C241.59 289.245 249.637 271.432 263.746 258.888L267.319 266.879C262.058 272.003 257.878 277.981 254.882 284.676C251.566 292.084 249.886 299.98 249.886 308.145C249.886 339.931 275.744 365.789 307.53 365.789C339.316 365.789 365.174 339.931 365.174 308.145C365.174 276.36 339.316 250.502 307.53 250.502C296.98 250.502 286.746 253.363 277.772 258.792L274.364 251.171C284.41 245.302 295.837 242.205 307.527 242.205H307.53ZM313.287 307.213C313.046 305.513 312.161 304.01 310.789 302.979L309.734 302.184C307.807 300.734 305.696 299.098 303.537 297.304C304.73 296.895 305.987 296.685 307.261 296.685C313.581 296.685 318.724 301.826 318.724 308.148C318.724 314.47 313.584 319.611 307.261 319.611C300.939 319.611 295.798 314.47 295.798 308.148C295.798 307.952 295.804 307.756 295.815 307.56C297.764 309.176 299.824 310.802 302.008 312.449L303.064 313.244C304.187 314.09 305.52 314.535 306.922 314.535C308.93 314.535 310.848 313.577 312.055 311.976C313.085 310.606 313.522 308.915 313.284 307.216L313.287 307.213ZM307.261 323.808C315.896 323.808 322.924 316.783 322.924 308.145C322.924 299.507 315.899 292.482 307.261 292.482C304.73 292.482 302.238 293.095 300.012 294.26C294.174 289.013 288.468 282.718 285.393 275.842L279.502 262.656C287.924 257.446 297.576 254.699 307.533 254.699C337.003 254.699 360.976 278.672 360.976 308.142C360.976 337.612 337.003 361.586 307.533 361.586C278.063 361.586 254.089 337.61 254.089 308.142C254.089 300.574 255.646 293.255 258.718 286.389C261.285 280.655 264.791 275.486 269.159 270.984L273.67 281.08C277.074 288.699 283.134 296.368 292.068 304.334C291.758 305.575 291.601 306.852 291.601 308.142C291.601 316.778 298.626 323.806 307.264 323.806L307.261 323.808ZM237.37 181.442H276.386C278.502 181.442 280.224 183.164 280.224 185.281C280.224 187.398 278.502 189.12 276.386 189.12H237.37V181.442ZM142.565 200.734C135.739 201.647 129.327 197.526 127.322 190.937L126.238 187.381H176.521L176.4 189.022C176.092 193.23 172.833 196.688 168.653 197.248L157.447 198.746C157.447 198.746 157.439 198.746 157.433 198.746L142.565 200.734ZM156.414 203.12L164.386 220.959C164.724 221.715 165.475 222.202 166.304 222.202H248.716C249.427 222.202 250.091 221.841 250.477 221.244C250.864 220.648 250.922 219.895 250.631 219.245L246.28 209.507C243.928 204.243 244.286 198.245 247.212 193.317H252.723C252.21 193.874 251.737 194.476 251.314 195.132C248.836 198.954 248.481 203.532 250.34 207.692L262.73 235.418C262.73 235.418 262.733 235.426 262.736 235.429L281.56 277.55C286.796 289.268 298.707 299.132 307.208 305.533L308.264 306.328C308.737 306.684 309.045 307.204 309.129 307.792C309.213 308.38 309.062 308.966 308.703 309.439C308.28 310.002 307.631 310.324 306.925 310.324C306.441 310.324 305.982 310.17 305.592 309.876L304.537 309.08C290.593 298.583 281.75 288.862 277.503 279.361L261.742 244.095C261.436 243.412 260.792 242.944 260.048 242.863C259.303 242.785 258.575 243.104 258.132 243.709L219.098 296.816C217.997 295.825 216.796 294.946 215.514 294.19L257.46 237.12C257.908 236.513 257.995 235.709 257.684 235.02L254.495 227.883C254.156 227.127 253.406 226.64 252.577 226.64H170.165C169.454 226.64 168.79 227.001 168.404 227.598C168.017 228.194 167.958 228.947 168.25 229.597L195.754 291.138H190.888L164.954 233.111C164.632 232.388 163.929 231.91 163.14 231.87C162.35 231.831 161.605 232.24 161.213 232.929L144.632 262.046L128.067 291.135H122.954L159.329 227.262L160.491 225.22C160.821 224.638 160.855 223.935 160.583 223.325L151.825 203.728L156.417 203.114L156.414 203.12ZM61.0152 223.927C61.0152 222.863 61.8804 221.998 62.9444 221.998H126.614C136.223 221.998 145.586 223.778 154.482 227.287L152.553 230.675C144.259 227.477 135.543 225.859 126.614 225.859H62.9444C61.8804 225.859 61.0152 224.994 61.0152 223.927ZM77.0368 230.059H126.614C134.809 230.059 142.814 231.512 150.447 234.374L144.416 244.966C134.888 240.352 124.656 238.008 113.98 238.008C103.304 238.008 93.3944 240.36 84.4036 244.56L77.0396 230.062L77.0368 230.059ZM48.04 308.148C48.04 283.161 62.012 261.374 82.5528 250.191L86.3132 257.591C68.4632 267.4 56.3364 286.384 56.3364 308.148C56.3364 339.934 82.1944 365.792 113.98 365.792C124.802 365.792 135.358 362.762 144.506 357.03C153.032 351.688 160.012 344.22 164.766 335.386H174.029C169.081 346.264 161.306 355.569 151.385 362.426C140.35 370.056 127.414 374.088 113.983 374.088C77.622 374.088 48.0428 344.506 48.0428 308.148H48.04Z" fill="#20311A"/>
</svg>
